<svg xmlns:inkscape="http://www.inkscape.org/namespaces/inkscape" xmlns:sodipodi="http://sodipodi.sourceforge.net/DTD/sodipodi-0.dtd" xmlns="http://www.w3.org/2000/svg" xmlns:svg="http://www.w3.org/2000/svg" version="1.1" style="clip-rule:evenodd;fill-rule:evenodd;image-rendering:optimizeQuality;shape-rendering:geometricPrecision;text-rendering:geometricPrecision" id="svg2314" sodipodi:docname="wikiadviser-noface.svg" inkscape:version="1.2.2 (b0a8486541, 2022-12-01)" viewBox="60.56 159.36 378.65 189.9">
  <defs id="defs2318"/>
  <sodipodi:namedview id="namedview2316" pagecolor="#ffffff" bordercolor="#000000" borderopacity="0.25" inkscape:showpageshadow="2" inkscape:pageopacity="0.0" inkscape:pagecheckerboard="0" inkscape:deskcolor="#d1d1d1" showgrid="true" inkscape:zoom="1.1928571" inkscape:cx="154.2515" inkscape:cy="217.54491" inkscape:window-width="1920" inkscape:window-height="1012" inkscape:window-x="0" inkscape:window-y="36" inkscape:window-maximized="1" inkscape:current-layer="svg2314">
    <inkscape:grid type="xygrid" id="grid2405"/>
  </sodipodi:namedview>
  <g id="g2168" transform="translate(-102.08296,-157.03249)">
    <path style="opacity:0.911" fill="#000000" d="m 242.5,355.5 c 14.815,-2.118 27.315,2.215 37.5,13 2.83,3.963 4.163,8.296 4,13 -1.864,2.707 -4.364,3.541 -7.5,2.5 -16.962,-13.978 -33.962,-13.978 -51,0 -4.231,1.267 -6.898,-0.233 -8,-4.5 3.787,-12.788 12.12,-20.788 25,-24 z" id="path2166"/>
  </g>
  <g id="g2172" transform="translate(-102.08296,-157.03249)">
    <path style="opacity:0.91" fill="#000000" d="m 439.5,355.5 c 15.857,-2.333 28.69,2.667 38.5,15 2.245,3.39 3.245,7.057 3,11 -1.864,2.707 -4.364,3.541 -7.5,2.5 -17.038,-13.978 -34.038,-13.978 -51,0 -4.626,1.357 -7.293,-0.309 -8,-5 4.02,-12.523 12.354,-20.357 25,-23.5 z" id="path2170"/>
  </g>
  <g id="g2176" transform="translate(-102.08296,-157.03249)">
    <path style="opacity:0.917" fill="#000000" d="m 298.5,474.5 c 26.111,11.673 53.111,14.173 81,7.5 6.752,-1.916 13.252,-4.416 19.5,-7.5 7.021,3.814 7.188,8.314 0.5,13.5 -27.905,21.352 -57.572,24.018 -89,8 -5.121,-3.453 -9.954,-7.286 -14.5,-11.5 -2.511,-4.3 -1.678,-7.633 2.5,-10 z" id="path2174"/>
  </g>
  <g id="g1152" transform="matrix(4.2072669,0,0,4.2072669,39.518221,14.003644)">
    <g id="g1150">
      <g id="g1148">
        <path fill="none" d="m 32.237,37.422 c -2.828,-0.366 -6.994,-0.626 -11.688,-0.024 -5.78,0.745 -9.862,1.269 -9.297,9.989 0.814,12.536 5.865,14.539 7.59,15.069 3.93,1.214 20.182,3.013 23.545,-12.411 0.734,-3.366 0.562,-6.074 -0.09,-8.465 -0.652,-2.393 -7.235,-3.798 -10.06,-4.158 z" id="path1140"/>
        <path fill="none" d="m 79.459,37.398 c -4.699,-0.602 -8.873,-0.342 -11.69,0.024 -2.825,0.36 -9.408,1.765 -10.06,4.158 -0.652,2.391 -0.824,5.099 -0.093,8.465 3.352,15.425 19.617,13.625 23.542,12.411 1.728,-0.53 6.774,-2.534 7.593,-15.069 0.567,-8.719 -3.517,-9.244 -9.292,-9.989 z m 1.656,21.785 c -0.265,0.299 -0.212,0.239 0.035,-0.056 -0.008,0.016 -0.024,0.04 -0.035,0.056 z" id="path1142"/>
        <path d="m 94.698,36.624 c -0.239,-0.506 -5.073,-1.23 -11.367,-1.823 -5.324,-0.506 -13.866,-0.164 -17.235,0.302 -1.373,0.196 -3.893,0.673 -6.363,1.349 -2.788,0.766 -5.523,1.733 -6.663,1.982 -1.101,0.239 -1.967,0.32 -2.863,0.299 v -0.01 c -0.07,0.004 -0.138,0.002 -0.207,0.005 -0.069,-0.003 -0.136,-0.001 -0.206,-0.005 v 0.01 c -0.9,0.021 -1.765,-0.06 -2.86,-0.299 C 45.789,38.185 43.059,37.218 40.263,36.452 37.798,35.776 35.278,35.299 33.9,35.103 30.54,34.636 21.993,34.295 16.674,34.801 10.367,35.395 5.544,36.118 5.3,36.624 5.128,36.99 4.746,41.694 5.255,42.2 c 0.503,0.514 2.284,1.513 2.717,3.18 0.432,1.67 2.176,13.654 6.082,16.927 6.419,5.401 27.997,5.64 31.721,-14.025 0.511,-2.685 1.182,-4.256 2.343,-4.691 0.471,-0.179 1.17,-0.313 1.884,-0.319 0.714,0.005 1.406,0.14 1.887,0.319 1.158,0.435 1.829,2.006 2.343,4.691 3.718,19.665 25.294,19.426 31.723,14.025 3.896,-3.273 5.642,-15.257 6.077,-16.927 0.435,-1.667 2.216,-2.666 2.714,-3.18 0.506,-0.506 0.13,-5.21 -0.048,-5.576 z M 42.387,50.045 C 39.024,65.47 22.773,63.67 18.843,62.456 c -1.725,-0.53 -6.777,-2.534 -7.59,-15.069 -0.564,-8.719 3.517,-9.244 9.297,-9.989 4.694,-0.602 8.86,-0.342 11.688,0.024 2.825,0.36 9.408,1.765 10.06,4.158 0.651,2.391 0.824,5.099 0.089,8.465 z m 46.364,-2.658 c -0.819,12.536 -5.865,14.539 -7.593,15.069 -3.925,1.214 -20.189,3.013 -23.542,-12.411 -0.731,-3.366 -0.559,-6.074 0.093,-8.465 0.652,-2.393 7.235,-3.798 10.06,-4.158 2.817,-0.366 6.991,-0.626 11.69,-0.024 5.775,0.745 9.859,1.27 9.292,9.989 z" id="path1144"/>
        <path d="m 81.115,59.183 c 0.011,-0.016 0.026,-0.04 0.035,-0.056 -0.247,0.295 -0.3,0.356 -0.035,0.056 z" id="path1146"/>
      </g>
    </g>
  </g>
</svg>