<?xml version="1.0" encoding="UTF-8"?>
<svg xmlns="http://www.w3.org/2000/svg" xmlns:xlink="http://www.w3.org/1999/xlink" width="1000px" height="1000px" viewBox="0 0 1000 1000" version="1.1">
<defs>
<clipPath id="clip1">
  <path d="M 150 0 L 850 0 C 932.84375 0 1000 67.15625 1000 150 L 1000 850 C 1000 932.84375 932.84375 1000 850 1000 L 150 1000 C 67.15625 1000 0 932.84375 0 850 L 0 150 C 0 67.15625 67.15625 0 150 0 Z M 150 0 "/>
</clipPath>
<clipPath id="clip2">
  <path d="M 0 249.242188 L 1000 249.242188 L 1000 750.761719 L 0 750.761719 Z M 0 249.242188 "/>
</clipPath>
<clipPath id="clip3">
  <path d="M 150 0 L 850 0 C 932.84375 0 1000 67.15625 1000 150 L 1000 850 C 1000 932.84375 932.84375 1000 850 1000 L 150 1000 C 67.15625 1000 0 932.84375 0 850 L 0 150 C 0 67.15625 67.15625 0 150 0 Z M 150 0 "/>
</clipPath>
<filter id="alpha" filterUnits="objectBoundingBox" x="0%" y="0%" width="100%" height="100%">
  <feColorMatrix type="matrix" in="SourceGraphic" values="0 0 0 0 1 0 0 0 0 1 0 0 0 0 1 0 0 0 1 0"/>
</filter>
<mask id="mask0">
  <g filter="url(#alpha)">
<rect x="0" y="0" width="1000" height="1000" style="fill:rgb(0%,0%,0%);fill-opacity:0.909804;stroke:none;"/>
  </g>
</mask>
<clipPath id="clip4">
  <rect x="0" y="0" width="1000" height="1000"/>
</clipPath>
<g id="surface5" clip-path="url(#clip4)">
<path style=" stroke:none;fill-rule:evenodd;fill:rgb(0%,0%,0%);fill-opacity:1;" d="M 210.898438 352.523438 C 250.023438 346.929688 283.039062 358.371094 309.933594 386.855469 C 317.410156 397.320312 320.929688 408.765625 320.5 421.1875 C 315.578125 428.335938 308.972656 430.539062 300.691406 427.789062 C 255.894531 390.875 211 390.875 166.003906 427.789062 C 154.828125 431.136719 147.785156 427.175781 144.875 415.90625 C 154.875 382.132812 176.882812 361.003906 210.898438 352.523438 Z M 210.898438 352.523438 "/>
</g>
<mask id="mask1">
  <g filter="url(#alpha)">
<rect x="0" y="0" width="1000" height="1000" style="fill:rgb(0%,0%,0%);fill-opacity:0.909804;stroke:none;"/>
  </g>
</mask>
<clipPath id="clip5">
  <rect x="0" y="0" width="1000" height="1000"/>
</clipPath>
<g id="surface8" clip-path="url(#clip5)">
<path style=" stroke:none;fill-rule:evenodd;fill:rgb(0%,0%,0%);fill-opacity:1;" d="M 731.167969 352.523438 C 773.046875 346.359375 806.9375 359.566406 832.847656 392.136719 C 838.773438 401.089844 841.414062 410.773438 840.769531 421.1875 C 835.847656 428.335938 829.242188 430.539062 820.960938 427.789062 C 775.964844 390.875 731.070312 390.875 686.273438 427.789062 C 674.054688 431.375 667.011719 426.972656 665.144531 414.585938 C 675.761719 381.511719 697.769531 360.824219 731.167969 352.523438 Z M 731.167969 352.523438 "/>
</g>
<mask id="mask2">
  <g filter="url(#alpha)">
<rect x="0" y="0" width="1000" height="1000" style="fill:rgb(0%,0%,0%);fill-opacity:0.917647;stroke:none;"/>
  </g>
</mask>
<clipPath id="clip6">
  <rect x="0" y="0" width="1000" height="1000"/>
</clipPath>
<g id="surface11" clip-path="url(#clip6)">
<path style=" stroke:none;fill-rule:evenodd;fill:rgb(0%,0%,0%);fill-opacity:1;" d="M 358.792969 666.796875 C 427.75 697.625 499.058594 704.226562 572.710938 686.605469 C 590.542969 681.542969 607.710938 674.941406 624.210938 666.796875 C 642.753906 676.871094 643.191406 688.753906 625.53125 702.449219 C 551.835938 758.839844 473.484375 765.878906 390.484375 723.578125 C 376.960938 714.457031 364.195312 704.335938 352.191406 693.207031 C 345.558594 681.851562 347.757812 673.046875 358.792969 666.796875 Z M 358.792969 666.796875 "/>
</g>
<clipPath id="clip7">
  <path d="M 0 249.242188 L 1000 249.242188 L 1000 593 L 0 593 Z M 0 249.242188 "/>
</clipPath>
<clipPath id="clip8">
  <path d="M 150 0 L 850 0 C 932.84375 0 1000 67.15625 1000 150 L 1000 850 C 1000 932.84375 932.84375 1000 850 1000 L 150 1000 C 67.15625 1000 0 932.84375 0 850 L 0 150 C 0 67.15625 67.15625 0 150 0 Z M 150 0 "/>
</clipPath>
<clipPath id="clip9">
  <path d="M 843 522 L 847 522 L 847 526 L 843 526 Z M 843 522 "/>
</clipPath>
<clipPath id="clip10">
  <path d="M 150 0 L 850 0 C 932.84375 0 1000 67.15625 1000 150 L 1000 850 C 1000 932.84375 932.84375 1000 850 1000 L 150 1000 C 67.15625 1000 0 932.84375 0 850 L 0 150 C 0 67.15625 67.15625 0 150 0 Z M 150 0 "/>
</clipPath>
</defs>
<g id="surface1">
<g clip-path="url(#clip1)" clip-rule="nonzero">
<rect x="0" y="0" width="1000" height="1000" style="fill:rgb(96.470588%,97.254902%,98.039216%);fill-opacity:1;stroke:none;"/>
</g>
<g clip-path="url(#clip2)" clip-rule="nonzero">
<g clip-path="url(#clip3)" clip-rule="nonzero">
<use xlink:href="#surface5" mask="url(#mask0)"/>
<use xlink:href="#surface8" mask="url(#mask1)"/>
<use xlink:href="#surface11" mask="url(#mask2)"/>
</g>
</g>
<g clip-path="url(#clip7)" clip-rule="nonzero">
<g clip-path="url(#clip8)" clip-rule="nonzero">
<path style=" stroke:none;fill-rule:evenodd;fill:rgb(0%,0%,0%);fill-opacity:1;" d="M 996.640625 272.296875 C 993.984375 266.675781 940.273438 258.632812 870.339844 252.042969 C 811.183594 246.417969 716.269531 250.21875 678.835938 255.398438 C 663.582031 257.574219 635.582031 262.875 608.136719 270.386719 C 577.160156 278.898438 546.769531 289.640625 534.101562 292.410156 C 521.867188 295.066406 512.246094 295.964844 502.289062 295.730469 L 502.289062 295.621094 C 501.511719 295.664062 500.757812 295.640625 499.992188 295.675781 C 499.222656 295.640625 498.480469 295.664062 497.703125 295.621094 L 497.703125 295.730469 C 487.703125 295.964844 478.089844 295.066406 465.925781 292.410156 C 453.203125 289.640625 422.867188 278.898438 391.800781 270.386719 C 364.410156 262.875 336.410156 257.574219 321.101562 255.398438 C 283.765625 250.207031 188.796875 246.417969 129.699219 252.042969 C 59.621094 258.640625 6.03125 266.675781 3.320312 272.296875 C 1.40625 276.363281 -2.835938 328.632812 2.820312 334.253906 C 8.40625 339.964844 28.195312 351.066406 33.007812 369.585938 C 37.808594 388.144531 57.1875 521.300781 100.585938 557.667969 C 171.910156 617.679688 411.667969 620.335938 453.046875 401.832031 C 458.722656 372 466.179688 354.542969 479.078125 349.710938 C 484.3125 347.722656 492.078125 346.230469 500.011719 346.164062 C 507.945312 346.222656 515.636719 347.722656 520.980469 349.710938 C 533.847656 354.542969 541.300781 372 547.011719 401.832031 C 588.324219 620.335938 828.0625 617.679688 899.496094 557.667969 C 942.785156 521.300781 962.183594 388.144531 967.019531 369.585938 C 971.851562 351.066406 991.640625 339.964844 997.175781 334.253906 C 1002.796875 328.632812 998.617188 276.363281 996.640625 272.296875 Z M 415.402344 421.421875 C 378.035156 592.8125 197.464844 572.8125 153.796875 559.324219 C 134.632812 553.433594 78.496094 531.167969 69.464844 391.886719 C 63.199219 295.007812 108.542969 289.175781 172.765625 280.898438 C 224.921875 274.210938 271.210938 277.097656 302.632812 281.164062 C 334.023438 285.164062 407.167969 300.777344 414.414062 327.363281 C 421.644531 353.933594 423.566406 384.019531 415.402344 421.421875 Z M 930.5625 391.886719 C 921.460938 531.179688 865.394531 553.433594 846.195312 559.324219 C 802.582031 572.8125 621.871094 592.800781 584.613281 421.421875 C 576.492188 384.019531 578.402344 353.933594 585.648438 327.363281 C 592.890625 300.777344 666.039062 285.164062 697.425781 281.164062 C 728.726562 277.097656 775.105469 274.210938 827.316406 280.898438 C 891.484375 289.175781 936.863281 295.007812 930.5625 391.886719 Z M 930.5625 391.886719 "/>
</g>
</g>
<g clip-path="url(#clip9)" clip-rule="nonzero">
<g clip-path="url(#clip10)" clip-rule="nonzero">
<path style=" stroke:none;fill-rule:evenodd;fill:rgb(0%,0%,0%);fill-opacity:1;" d="M 845.71875 522.957031 C 845.839844 522.777344 846.003906 522.511719 846.105469 522.332031 C 843.359375 525.613281 842.773438 526.289062 845.71875 522.957031 Z M 845.71875 522.957031 "/>
</g>
</g>
</g>
</svg>
